<?xml version="1.0" encoding="utf-8"?>
<!-- Generated by IcoMoon.io -->
<!DOCTYPE svg PUBLIC "-//W3C//DTD SVG 1.1//EN" "http://www.w3.org/Graphics/SVG/1.1/DTD/svg11.dtd">
<svg version="1.1" xmlns="http://www.w3.org/2000/svg" xmlns:xlink="http://www.w3.org/1999/xlink" width="16" height="16" viewBox="0 0 24 24">
<path fill="#000000" d="M14.4,11l1.6,1.6V11H14.4z M17,7h-4v1.9h4c1.7,0,3.1,1.4,3.1,3.1c0,1.3-0.8,2.4-1.9,2.8l1.4,1.4C21,15.4,22,13.8,22,12  C22,9.2,19.8,7,17,7z M2,4.3l3.1,3.1C3.3,8.1,2,9.9,2,12c0,2.8,2.2,5,5,5h4v-1.9H7c-1.7,0-3.1-1.4-3.1-3.1c0-1.6,1.2-2.9,2.8-3.1  L8.7,11H8v2h2.7l2.3,2.3V17h1.7l4,4l1.4-1.4L3.4,2.9L2,4.3z"></path>
</svg>
